<svg width="13" height="11" fill="none" xmlns="http://www.w3.org/2000/svg"><path d="M6.5 4.733c3.59 0 6.5-.97 6.5-2.166C13 1.37 10.09.4 6.5.4S0 1.37 0 2.567c0 1.196 2.91 2.166 6.5 2.166z" fill="#B9C7CF"/><path d="M11.507 5.332c-1.357.452-3.135.701-5.007.701-1.872 0-3.65-.249-5.007-.701C.872 5.125.383 4.89 0 4.64v.916c0 .58.676 1.123 1.904 1.532 1.227.41 2.86.635 4.596.635 1.736 0 3.368-.225 4.596-.634C12.324 6.679 13 6.135 13 5.556V4.64c-.383.25-.872.485-1.493.692z" fill="#B9C7CF"/><path d="M11.507 8.322c-1.357.452-3.135.701-5.007.701-1.872 0-3.65-.249-5.007-.701C.872 8.115.383 7.88 0 7.63v1.003C0 9.83 2.91 10.8 6.5 10.8S13 9.83 13 8.633V7.63c-.383.25-.872.485-1.493.692z" fill="#B9C7CF"/></svg>