<svg width="18" height="16" fill="none" xmlns="http://www.w3.org/2000/svg"><path d="M17.182 13.894H.818a.823.823 0 00-.818.828c0 .457.366.827.818.827h16.364c.452 0 .818-.37.818-.827a.823.823 0 00-.818-.828zM1.82 12.514c-.453 0-.82.309-.82.69 0 .38.367.69.82.69h14.36c.453 0 .82-.31.82-.69 0-.381-.367-.69-.82-.69h-.205V6.308h.204c.227 0 .41-.154.41-.344 0-.19-.183-.345-.41-.345H1.821c-.227 0-.41.155-.41.345 0 .19.183.344.41.344h.205v6.206H1.82zm12.513-6.206v6.206h-2.461V6.308h2.461zm-4.103 0v6.206H7.77V6.308h2.461zm-6.563 0h2.46v6.206h-2.46V6.308zM.818 4.792h16.364c.452 0 .818-.285.818-.637 0-.28-.231-.516-.553-.602L9.332.71a1.035 1.035 0 00-.67 0L.481 3.575c-.351.123-.545.42-.464.714.081.293.414.503.8.503z" fill="#E1C988"/></svg>