<svg width="19" height="18" fill="none" xmlns="http://www.w3.org/2000/svg"><path d="M16.856 3.496h-1.313c.173-.274.287-.581.32-.906A2.314 2.314 0 0014.488.205a2.305 2.305 0 00-2.513.404l-1.657 1.502a1.76 1.76 0 00-2.606.002L6.052.61A2.306 2.306 0 003.54.205 2.314 2.314 0 002.165 2.59c.032.325.147.633.32.906H1.176C.526 3.496 0 4.023 0 4.672v1.764c0 .325.263.588.588.588h16.856a.588.588 0 00.588-.588V4.672c0-.65-.527-1.176-1.176-1.176zM7.252 3.3v.196H4.486a1.16 1.16 0 01-1.124-1.442c.08-.335.322-.62.635-.765.43-.199.906-.135 1.267.192l1.988 1.802V3.3zm7.444-.867c-.044.612-.596 1.063-1.208 1.063H10.78V3.28l1.957-1.775c.301-.273.723-.4 1.113-.284.559.167.887.642.846 1.212zM1.176 8.2v8.624c0 .65.526 1.176 1.176 1.176H7.84V8.2H1.176zm9.016 0V18h5.488c.65 0 1.176-.526 1.176-1.176V8.2h-6.664z" fill="#E1C988"/></svg>