<svg width="18" height="18" fill="none" xmlns="http://www.w3.org/2000/svg"><path d="M15.26 0H2.74A2.742 2.742 0 000 2.74v8.608a2.743 2.743 0 002.74 2.739h8.446l3.799 3.799a.391.391 0 00.667-.277v-3.55A2.743 2.743 0 0018 11.348V2.739A2.743 2.743 0 0015.26 0zM9 11.74a1.175 1.175 0 01-1.174-1.175c0-.647.527-1.174 1.174-1.174.647 0 1.174.527 1.174 1.174 0 .647-.527 1.174-1.174 1.174zm1.562-8.134l-.337 3.868a1.232 1.232 0 01-2.456-.007l-.33-3.856a1.18 1.18 0 01.31-.888c.222-.239.535-.375.86-.375h.782a1.176 1.176 0 011.171 1.258z" fill="#E1C988"/></svg>