<svg width="11" height="11" fill="none" xmlns="http://www.w3.org/2000/svg"><path d="M6.875 5.042a.458.458 0 01-.458-.459V2.75a.459.459 0 00-.459-.458H4.583v6.875c0 .391-.249.74-.624.871l-.136.045h2.135a.459.459 0 00.459-.458V8.25a.458.458 0 11.916 0v1.375c0 .758-.617 1.375-1.375 1.375H1.031c-.017 0-.032-.008-.049-.01-.022.002-.043.01-.065.01A.918.918 0 010 10.083v-8.25c0-.391.25-.74.624-.87l2.758-.92a.918.918 0 011.2.874v.458H5.96c.758 0 1.375.617 1.375 1.375v1.833a.458.458 0 01-.458.459z" fill="#B9C7CF"/><path d="M10.866 6.74L9.033 8.574a.458.458 0 01-.783-.324V6.875H6.417a.458.458 0 010-.917H8.25V4.583a.46.46 0 01.783-.324l1.833 1.833c.18.18.18.47 0 .648z" fill="#B9C7CF"/></svg>