<svg width="19" height="19" fill="none" xmlns="http://www.w3.org/2000/svg"><path d="M9.5 0A9.5 9.5 0 000 9.5 9.5 9.5 0 009.5 19a9.5 9.5 0 000-19zm.575 13.732v1.1a.294.294 0 01-.305.296h-.733c-.172 0-.31-.125-.31-.296v-1.004a6.292 6.292 0 01-1.871-.37.587.587 0 01-.36-.694l.119-.466a.585.585 0 01.781-.401c.49.19 1.07.327 1.69.327.787 0 1.327-.304 1.327-.857 0-.525-.443-.857-1.466-1.204-1.48-.497-2.493-1.188-2.493-2.53 0-1.217.861-2.17 2.333-2.462V4.17a.33.33 0 01.319-.326h.733c.172 0 .298.154.298.326v.905a5.49 5.49 0 011.497.25.59.59 0 01.39.704l-.105.417a.589.589 0 01-.759.41 4.234 4.234 0 00-1.397-.232c-.899 0-1.19.388-1.19.775 0 .457.485.747 1.66 1.19 1.645.58 2.306 1.341 2.306 2.585 0 1.23-.87 2.283-2.464 2.559z" fill="#E1C988"/></svg>