<svg width="12" height="14" fill="none" xmlns="http://www.w3.org/2000/svg"><path d="M6.248 6.744a3.263 3.263 0 01-2.384-.988 3.263 3.263 0 01-.988-2.384c0-.926.332-1.729.988-2.384A3.263 3.263 0 016.248 0c.927 0 1.729.332 2.384.988.656.655.988 1.457.988 2.384a3.26 3.26 0 01-.988 2.384 3.263 3.263 0 01-2.384.988zm-5.9 4.021c.019-.273.057-.57.114-.884a6.97 6.97 0 01.217-.89c.09-.282.214-.562.366-.83a3.13 3.13 0 01.551-.718c.218-.208.484-.375.792-.497A2.737 2.737 0 013.4 6.763c.143 0 .281.058.548.232.164.107.357.231.571.368.183.117.432.226.739.326.3.096.603.146.903.146.3 0 .604-.05.904-.146.306-.1.555-.209.738-.326.212-.135.405-.26.571-.368.267-.174.405-.232.548-.232.364 0 .704.061 1.011.183.308.122.575.289.792.497.208.2.394.441.551.719.152.267.275.546.366.83.088.273.16.572.218.889.056.313.094.611.113.885.019.268.028.546.028.826 0 .731-.232 1.323-.69 1.76-.453.43-1.052.648-1.78.648H2.79c-.729 0-1.327-.218-1.78-.649-.458-.436-.69-1.028-.69-1.759 0-.282.01-.56.028-.827z" fill="#E1C988"/></svg>