<svg width="14" height="14" fill="none" xmlns="http://www.w3.org/2000/svg"><path d="M12.68 1.32a4.517 4.517 0 00-6.38 0 4.51 4.51 0 00-1.099 4.578L.121 10.98a.41.41 0 00-.121.29v2.32c0 .227.183.41.41.41h2.32a.41.41 0 00.29-.12l.58-.58a.41.41 0 00.118-.338l-.072-.623.863-.081a.41.41 0 00.37-.37l.081-.864.624.073a.411.411 0 00.457-.407v-.764h.75a.41.41 0 00.29-.12l1.052-1.038c1.606.52 3.346.134 4.548-1.068a4.517 4.517 0 000-6.38zm-1.16 2.9a1.232 1.232 0 01-1.74-1.74 1.232 1.232 0 011.74 1.74z" fill="#E1C988"/></svg>